<?xml version="1.0" encoding="utf-8"?>
<!-- Generator: Adobe Illustrator 19.2.1, SVG Export Plug-In . SVG Version: 6.00 Build 0)  -->
<svg version="1.1" id="layer" xmlns="http://www.w3.org/2000/svg" xmlns:xlink="http://www.w3.org/1999/xlink" x="0px" y="0px"
	 viewBox="0 0 652 652" style="enable-background:new 0 0 652 652;" xml:space="preserve">
<style type="text/css">
	.st0{fill:#3D4543;}
	.st1{fill:#E1251D;}
	.st2{fill:#FFCD2D;}
	.st3{fill:#C9D75B;}
	.st4{fill:#28AAE1;}
</style>
<path class="st0" d="M26.3,411.4l1.2-1.4c1.4-1.6,2.9-1.6,4.7-0.2c7.8,6.5,17.7,10,27.9,10c12,0,22.6-6.3,22.6-18.4
	c0-24.9-54-17.9-54-49.9c0-17.5,14.7-26.5,31.4-26.5c14.3,0,23.2,5.5,26.7,8.4c1.6,1.2,2,2.8,0.8,4.5l-1.2,1.6
	c-1.4,1.8-2.9,1.8-4.7,0.4c-3.5-2.7-11-6.9-22.2-6.9s-22.2,5.1-22.2,17.9c0,25.5,54,17.9,54,50.4c0,15.7-13.4,26.5-31.4,26.5
	c-17.7,0-28.8-7.9-33.2-12C25.1,414.6,25.1,413,26.3,411.4"/>
<path class="st0" d="M116.6,330.8c0-2.2,1.2-3.3,3.3-3.3h1.6c2.2,0,3.3,1.2,3.3,3.3v8.4c0,2.6-0.2,5.3-0.6,7.9h0.4c0,0,8-22,35.3-22
	c26.3,0,42.4,21,42.4,51.4c0,31.2-18.3,51.4-43.6,51.4c-25.5,0-34.3-22.2-34.3-22.2h-0.4c0.5,2.8,0.8,5.7,0.8,8.6v47.1
	c0,2.2-1.2,3.3-3.3,3.3H120c-2.2,0-3.3-1.2-3.3-3.3L116.6,330.8z M158.8,419.9c19.2,0,34.9-15.9,34.9-43.4
	c0-26.5-14.1-43.4-34.2-43.4c-18.1,0-34.9,12.8-34.9,43.6C124.6,398.5,136.8,419.9,158.8,419.9"/>
<path class="st0" d="M228.6,330.8c0-2.2,1.2-3.3,3.3-3.3h1.6c2.2,0,3.3,1.2,3.3,3.3v15.3c0,2.7-0.3,5.4-0.8,8.1h0.4
	c4.9-15.1,16.5-27.3,33-27.3c2.7,0,4.1,1.2,4.1,3.3v1.8c0,2.2-1.8,3.3-4.3,3.3c-22,0-32.4,26.1-32.4,47.9v39c0,2.2-1.2,3.3-3.3,3.3
	H232c-2.2,0-3.3-1.2-3.3-3.3L228.6,330.8z"/>
<path class="st0" d="M291.2,330.8c0-2.3,1.1-3.4,3.4-3.4h2c2.2,0,3.4,1.1,3.4,3.4v91.6c0,2.3-1.2,3.4-3.4,3.4h-2
	c-2.3,0-3.4-1.1-3.4-3.4V330.8z"/>
<path class="st0" d="M330.9,330.8c0-2.2,1.2-3.3,3.3-3.3h1.6c2.2,0,3.3,1.2,3.3,3.3v13.9c0,2.7-0.3,5.4-0.8,8h0.4
	c3.3-9.2,17.1-27.7,41.6-27.7c25.5,0,32.4,15.1,32.4,38.3v58.9c0,2.2-1.2,3.3-3.3,3.3h-1.6c-2.2,0-3.3-1.2-3.3-3.3v-55.9
	c0-17.1-2.2-33.2-24.1-33.2c-22.4,0-41.2,18.4-41.2,43.6v45.5c0,2.2-1.2,3.3-3.3,3.3h-1.6c-2.2,0-3.3-1.2-3.3-3.3L330.9,330.8z"/>
<path class="st0" d="M444.3,291.5c0-2.2,1.2-3.3,3.3-3.3h1.6c2.2,0,3.3,1.2,3.3,3.3v74.6H470l30.2-36.7c1-1.3,2.5-2,4.1-2h2.9
	c2.7,0,3.7,2,1.8,4.1l-32,38.1v0.4l36.1,51.4c1.6,2.4,0.6,4.1-2.2,4.1h-2.9c-1.6,0.1-3.2-0.7-3.9-2.2L470,373.7h-17.5v48.5
	c0,2.2-1.2,3.3-3.3,3.3h-1.6c-2.2,0-3.3-1.2-3.3-3.3L444.3,291.5z"/>
<path class="st0" d="M535.8,291.5c0-2.2,1.2-3.3,3.3-3.3h1.6c2.2,0,3.3,1.2,3.3,3.3V403c0,13.7,6.7,14.9,11.4,15.5
	c1.8,0.2,3.1,0.8,3.1,3.1v1.2c0,2.2-0.8,3.5-3.5,3.5c-5.7,0-19.2-2.2-19.2-20.6L535.8,291.5z"/>
<path class="st0" d="M580.5,330.8c0-2.2,1.2-3.3,3.3-3.3h1.6c2.2,0,3.3,1.2,3.3,3.3v15.3c0,2.7-0.3,5.4-0.8,8.1h0.4
	c4.9-15.1,16.5-27.3,33-27.3c2.7,0,4.1,1.2,4.1,3.3v1.8c0,2.2-1.8,3.3-4.3,3.3c-22,0-32.4,26.1-32.4,47.9v39c0,2.2-1.2,3.3-3.3,3.3
	h-1.6c-2.2,0-3.3-1.2-3.3-3.3L580.5,330.8z"/>
<path class="st1" d="M234.4,207.5c0.4-6.6,5.9-12.4,13.4-11.9c2.1,0.1,4.5,0.3,8.2,3c16.5,14.4,26.2,39.7,23.3,61.7
	c-0.1,1.1-1.4,1-1.7,0c-4.6-15.7-19.9-33.8-33.4-39.2C237.7,218.6,234,213.9,234.4,207.5"/>
<path class="st2" d="M351.6,206.3c0-10-8.4-18.9-20.6-18.6c-23.2,0.5-54.4,60.3-36.6,114.5c0.2,1.1,1.3,0.9,1.4-0.2
	c2.5-37.8,25.2-67.3,45.5-78.8C349.3,218.7,351.6,213.1,351.6,206.3"/>
<path class="st3" d="M224.3,260.9c0.5,7.5,6.8,11.2,12.6,11.2c13.3,0,29.8,6.2,39.6,14.3c0.8,0.7,0.9,0.4,0.4-1.4
	c-3.9-13.8-25-36.9-40.4-36.9c-6.6-0.1-12.1,5.1-12.3,11.8C224.2,260.3,224.3,260.6,224.3,260.9"/>
<path class="st4" d="M366.5,260.9c-0.5,7.5-6.8,11.2-12.6,11.2c-13.3,0-29.8,6.2-39.6,14.3c-0.8,0.7-0.9,0.4-0.4-1.4
	c3.9-13.8,25-36.9,40.4-36.9c6.6-0.1,12.1,5.1,12.3,11.8C366.6,260.3,366.6,260.6,366.5,260.9"/>
</svg>
