<svg xmlns="http://www.w3.org/2000/svg" x="0px" y="0px"
width="64" height="64"
viewBox="0 0 172 172"
style=" fill:#000000;"><g fill="none" fill-rule="nonzero" stroke="none" stroke-width="1" stroke-linecap="butt" stroke-linejoin="miter" stroke-miterlimit="10" stroke-dasharray="" stroke-dashoffset="0" font-family="none" font-weight="none" font-size="none" text-anchor="none" style="mix-blend-mode: normal"><path d="M0,172v-172h172v172z" fill="none"></path><g fill="#ffffff"><path d="M151.7255,46.87538c-0.91106,-3.87 -3.81894,-6.97406 -7.70237,-8.20494c-10.29044,-3.26531 -32.6155,-6.42044 -58.02313,-6.42044c-25.40763,0 -47.73269,3.15512 -58.02581,6.42044c-3.88344,1.23087 -6.79131,4.33494 -7.70237,8.20494c-1.72,7.30731 -4.14681,20.85769 -4.14681,39.12463c0,18.26694 2.42681,31.81731 4.1495,39.12462c0.91106,3.87 3.81894,6.97406 7.70238,8.20494c10.29044,3.26531 32.6155,6.42044 58.02313,6.42044c25.40762,0 47.73269,-3.15512 58.02581,-6.42044c3.88344,-1.23087 6.79131,-4.33494 7.70237,-8.20494c1.72,-7.30731 4.14681,-20.85769 4.14681,-39.12462c0,-18.26694 -2.42681,-31.81731 -4.1495,-39.12462zM72.5625,107.5v-43l39.92819,21.5z"></path></g></g></svg>